<?xml version="1.0" encoding="utf-8"?>
<!-- Generator: Adobe Illustrator 23.0.6, SVG Export Plug-In . SVG Version: 6.00 Build 0)  -->
<svg version="1.1" id="Layer_1" xmlns="http://www.w3.org/2000/svg" xmlns:xlink="http://www.w3.org/1999/xlink" x="0px" y="0px"
	 viewBox="0 0 494.81 490.91" style="enable-background:new 0 0 494.81 490.91;" xml:space="preserve">
<style type="text/css">
	.st0{fill:#CF202F;stroke:#fff;stroke-width:5;stroke-miterlimit:10;}
	.st1{fill:#D81965;stroke:#fff;stroke-width:5;stroke-miterlimit:10;}
	.st2{fill:#8F4A9C;stroke:#fff;stroke-width:5;stroke-miterlimit:10;}
	.st3{fill:#4185BF;stroke:#fff;stroke-width:5;stroke-miterlimit:10;}
	.st4{fill:#009384;stroke:#fff;stroke-width:5;stroke-miterlimit:10;}
	.st5{fill:#6EC068;stroke:#fff;stroke-width:5;stroke-miterlimit:10;}
	.st6{fill:#F6DB37;stroke:#fff;stroke-width:5;stroke-miterlimit:10;}
	.st7{fill:#F68823;stroke:#fff;stroke-width:5;stroke-miterlimit:10;}
</style>
<g>
	<g>
		<g>
			<g>
				<path class="st0" d="M246.97,244.08L80.62,77.72C126.55,31.78,182.01,8.81,246.97,8.81V244.08z"/>
			</g>
		</g>
		<g>
			<g>
				<path class="st1" d="M246.97,244.08H11.71c0-64.97,22.97-120.42,68.91-166.36L246.97,244.08z"/>
			</g>
		</g>
		<g>
			<g>
				<path class="st2" d="M246.97,244.08L80.62,410.44C34.68,364.5,11.71,309.04,11.71,244.08H246.97z"/>
			</g>
		</g>
		<g>
			<g>
				<path class="st3" d="M246.97,244.08v235.27c-64.97,0-120.42-22.97-166.36-68.91L246.97,244.08z"/>
			</g>
		</g>
		<g>
			<g>
				<path class="st4" d="M246.97,244.08l166.36,166.36c-45.94,45.94-101.39,68.91-166.36,68.91V244.08z"/>
			</g>
		</g>
		<g>
			<g>
				<path class="st5" d="M246.97,244.08h235.27c0,64.97-22.97,120.42-68.91,166.36L246.97,244.08z"/>
			</g>
		</g>
		<g>
			<g>
				<path class="st6" d="M246.97,244.08L413.33,77.72c45.94,45.94,68.91,101.39,68.91,166.36H246.97z"/>
			</g>
		</g>
		<g>
			<g>
				<path class="st7" d="M246.97,244.08V8.81c64.97,0,120.42,22.97,166.36,68.91L246.97,244.08z"/>
			</g>
		</g>
	</g>
	<g>
		<g>
		</g>
		<g>
		</g>
		<g>
		</g>
		<g>
		</g>
		<g>
		</g>
		<g>
		</g>
		<g>
		</g>
		<g>
		</g>
	</g>
</g>
</svg>
